<svg width="56" height="56" viewBox="0 0 56 56" fill="none" xmlns="http://www.w3.org/2000/svg">
<path d="M29.0617 5.38731L27.9995 4.84439L26.9376 5.38731C24.2555 6.7584 21.8241 8.54886 19.7297 10.6725C22.8058 12.2739 25.595 14.3504 28.0002 16.8048C30.4052 14.3506 33.1942 12.2743 36.27 10.673C34.1754 8.54912 31.7438 6.75849 29.0617 5.38731ZM24.965 20.3801C20.9749 16.1817 15.6946 13.2193 9.75487 12.1283L7 11.6222V30.3338C7 39.211 12.5082 46.8018 20.2933 49.8745C19.2377 46.6629 18.6667 43.2315 18.6667 39.6667C18.6667 32.4527 21.005 25.785 24.965 20.3801ZM49 11.6222L46.245 12.1283C33.2103 14.5226 23.3333 25.9392 23.3333 39.6671C23.3333 43.2511 24.0079 46.6832 25.239 49.8395L25.7994 51.2759C26.5326 51.2988 27.2664 51.3338 28 51.3338C39.5981 51.3338 49 41.9319 49 30.3338V11.6222Z" fill="#E56C89"/>
</svg>
